name rise49.5252peak65.1548fall88.8305.mot
datacolumns 19
datarows 12
range 6.71331100000000 6.73163600000000
endheader
time	ground_force1_vx	ground_force1_vy	ground_force1_vz	ground_force1_px	ground_force1_py	ground_force1_pz	ground_force2_vx	ground_force2_vy	ground_force2_vz	ground_force2_px	ground_force2_py	ground_force2_pz	ground_torque1_x	ground_torque1_y	ground_torque1_z	ground_torque2_x	ground_torque2_y	ground_torque2_z	
6.71331100000000	44.43739900000000	727.02647200000001	56.90343700000000	0.34342000000000	0.00000000000000	0.11477000000000	0.00000000000000	0.00000000000000	0.00000000000000	0.00000000000000	0.00000000000000	0.00000000000000	0.00000000000000	27.83169700000000	0.00000000000000	0.00000000000000	0.00000000000000	0.00000000000000	
6.71496800000000	44.06619200000000	731.13243899999998	57.11174700000000	0.34233700000000	0.00000000000000	0.11473300000000	0.00000000000000	0.00000000000000	0.00000000000000	0.00000000000000	0.00000000000000	0.00000000000000	0.00000000000000	27.90923700000000	0.00000000000000	0.00000000000000	0.00000000000000	0.00000000000000	
6.71663300000000	43.69722200000000	735.15936099999999	57.31690000000000	0.34131700000000	0.00000000000000	0.11469500000000	0.00000000000000	0.00000000000000	0.00000000000000	0.00000000000000	0.00000000000000	0.00000000000000	0.00000000000000	27.98785300000000	0.00000000000000	0.00000000000000	0.00000000000000	0.00000000000000	
6.71830200000000	43.33057900000000	739.10161500000004	57.51860500000000	0.34036000000000	0.00000000000000	0.11465500000000	0.00000000000000	0.00000000000000	0.00000000000000	0.00000000000000	0.00000000000000	0.00000000000000	0.00000000000000	28.06745600000000	0.00000000000000	0.00000000000000	0.00000000000000	0.00000000000000	
6.71996700000000	42.96628000000000	742.95359299999996	57.71650400000000	0.33946400000000	0.00000000000000	0.11461300000000	0.00000000000000	0.00000000000000	0.00000000000000	0.00000000000000	0.00000000000000	0.00000000000000	0.00000000000000	28.14790300000000	0.00000000000000	0.00000000000000	0.00000000000000	0.00000000000000	
6.72163400000000	42.60428000000000	746.70973100000003	57.91017700000000	0.33862700000000	0.00000000000000	0.11456900000000	0.00000000000000	0.00000000000000	0.00000000000000	0.00000000000000	0.00000000000000	0.00000000000000	0.00000000000000	28.22900100000000	0.00000000000000	0.00000000000000	0.00000000000000	0.00000000000000	
6.72330100000000	42.24447100000000	750.36453700000004	58.09914600000000	0.33784900000000	0.00000000000000	0.11452400000000	0.00000000000000	0.00000000000000	0.00000000000000	0.00000000000000	0.00000000000000	0.00000000000000	0.00000000000000	28.31051400000000	0.00000000000000	0.00000000000000	0.00000000000000	0.00000000000000	
6.72496800000000	41.88668700000000	753.91261899999995	58.28288100000000	0.33712700000000	0.00000000000000	0.11447700000000	0.00000000000000	0.00000000000000	0.00000000000000	0.00000000000000	0.00000000000000	0.00000000000000	0.00000000000000	28.39216300000000	0.00000000000000	0.00000000000000	0.00000000000000	0.00000000000000	
6.72663800000000	41.53071300000000	757.34871499999997	58.46081100000000	0.33646000000000	0.00000000000000	0.11442800000000	0.00000000000000	0.00000000000000	0.00000000000000	0.00000000000000	0.00000000000000	0.00000000000000	0.00000000000000	28.47362800000000	0.00000000000000	0.00000000000000	0.00000000000000	0.00000000000000	
6.72829900000000	41.17628600000000	760.66771800000004	58.63232200000000	0.33584400000000	0.00000000000000	0.11437700000000	0.00000000000000	0.00000000000000	0.00000000000000	0.00000000000000	0.00000000000000	0.00000000000000	0.00000000000000	28.55455800000000	0.00000000000000	0.00000000000000	0.00000000000000	0.00000000000000	
6.72997300000000	40.82309800000000	763.86470299999996	58.79677500000000	0.33527900000000	0.00000000000000	0.11432500000000	0.00000000000000	0.00000000000000	0.00000000000000	0.00000000000000	0.00000000000000	0.00000000000000	0.00000000000000	28.63456800000000	0.00000000000000	0.00000000000000	0.00000000000000	0.00000000000000	
6.73163600000000	40.47080700000000	766.93495099999996	58.95350100000000	0.33476100000000	0.00000000000000	0.11427200000000	0.00000000000000	0.00000000000000	0.00000000000000	0.00000000000000	0.00000000000000	0.00000000000000	0.00000000000000	28.71325000000000	0.00000000000000	0.00000000000000	0.00000000000000	0.00000000000000	
